<?xml version="1.0" standalone="no" ?>
<!DOCTYPE svg PUBLIC "-//W3C//DTD SVG 20010904//EN"
  "http://www.w3.org/TR/2001/REC-SVG-20010904/DTD/svg10.dtd">
<svg
  version="1.0"
  xmlns="http://www.w3.org/2000/svg"
  width="20px"
  height="20px"
  viewBox="0 0 225.000000 225.000000"
  preserveAspectRatio="xMidYMid meet"
>

<g
    transform="translate(0.000000,225.000000) scale(0.100000,-0.100000)"
    fill="#626262"
    stroke="none"
  >
<path
      d="M901 1823 c-14 -3 -74 -54 -136 -114 l-112 -109 -170 0 c-160 0 -172
-1 -204 -23 -71 -47 -70 -36 -67 -574 3 -469 4 -482 24 -509 11 -15 33 -37 48
-48 27 -21 35 -21 841 -21 806 0 814 0 841 21 15 11 37 33 48 48 20 27 21 40
24 509 3 538 4 527 -67 574 -32 22 -44 23 -205 23 l-171 0 -100 101 c-55 56
-114 107 -132 115 -25 11 -81 14 -235 13 -112 -1 -214 -4 -227 -6z m994 -339
c44 -17 35 -99 -12 -111 -58 -14 -101 43 -69 92 16 25 47 32 81 19z m-628 -52
c115 -44 215 -152 249 -270 21 -72 14 -187 -16 -265 -64 -167 -268 -281 -441
-248 -88 18 -170 64 -234 132 -76 83 -99 146 -100 274 0 94 2 105 33 167 96
195 313 285 509 210z"
      fill="#626262"
    />
<path
      d="M1045 1347 c-68 -23 -101 -44 -147 -96 -175 -194 -35 -504 227 -504
265 0 402 312 224 508 -79 85 -206 124 -304 92z"
      fill="#626262"
    />
</g>
</svg>
