<svg xmlns="http://www.w3.org/2000/svg" viewBox="0 0 100 100">
  <path d="M30.613281 17.960938C23.445281 17.960938 17.613281 23.792938 17.613281 30.960938L17.613281 69.960938C17.613281 77.128938 23.445281 82.960938 30.613281 82.960938L69.613281 82.960938C76.781281 82.960938 82.613281 77.128938 82.613281 69.960938L82.613281 30.960938C82.613281 23.791938 76.782281 17.960938 69.613281 17.960938L30.613281 17.960938 z M 30.613281 19.960938L69.613281 19.960938C75.678281 19.960938 80.613281 24.895937 80.613281 30.960938L80.613281 69.960938C80.613281 76.025937 75.678281 80.960938 69.613281 80.960938L30.613281 80.960938C24.548281 80.960938 19.613281 76.025937 19.613281 69.960938L19.613281 30.960938C19.613281 24.895937 24.548281 19.960938 30.613281 19.960938 z M 33.451172 22.960938C27.475172 22.960938 22.613281 27.822828 22.613281 33.798828L22.613281 67.123047C22.613281 73.099047 27.475172 77.960938 33.451172 77.960938L66.777344 77.960938C72.753344 77.960938 77.613281 73.099047 77.613281 67.123047L77.613281 48.460938C77.613281 48.183937 77.390281 47.960938 77.113281 47.960938C76.837281 47.960938 76.613281 48.184937 76.613281 48.460938L76.613281 67.123047C76.613281 72.547047 72.201344 76.960938 66.777344 76.960938L33.451172 76.960938C28.027172 76.960938 23.613281 72.547047 23.613281 67.123047L23.613281 33.798828C23.613281 28.374828 28.027172 23.960937 33.451172 23.960938L67.113281 23.960938C67.389281 23.960938 67.613281 23.736937 67.613281 23.460938C67.613281 23.184938 67.389281 22.960937 67.113281 22.960938L33.451172 22.960938 z M 50 34.404297C41.4 34.403297 34.404297 41.4 34.404297 50C34.404297 54.104 35.996047 57.983109 38.873047 60.912109C38.887047 60.930109 38.956656 61.013297 38.972656 61.029297C39.009656 61.066297 39.048172 61.098234 39.076172 61.115234C42.016172 64.006234 45.896 65.597656 50 65.597656C58.6 65.597656 65.597656 58.6 65.597656 50C65.597656 41.4 58.6 34.404297 50 34.404297 z M 50 35.404297C58.049 35.403297 64.597656 41.951 64.597656 50C64.597656 58.049 58.049 64.597656 50 64.597656C46.16 64.597656 42.530344 63.107344 39.777344 60.402344C39.767344 60.392344 39.680922 60.317594 39.669922 60.308594C39.656922 60.291594 39.614609 60.239609 39.599609 60.224609C36.893609 57.470609 35.404297 53.84 35.404297 50C35.404297 41.952 41.952 35.404297 50 35.404297 z M 77.113281 36.960938C76.837281 36.960938 76.613281 37.183937 76.613281 37.460938L76.613281 39.460938C76.613281 39.736938 76.837281 39.960938 77.113281 39.960938C77.389281 39.960938 77.613281 39.736937 77.613281 39.460938L77.613281 37.460938C77.613281 37.184937 77.389281 36.960938 77.113281 36.960938 z M 50.001953 37.347656C43.023953 37.346656 37.347656 43.023 37.347656 50C37.347656 52.842 38.280875 55.534109 40.046875 57.787109C40.134875 57.899109 40.268156 57.970516 40.410156 57.978516C40.420156 57.978516 40.430453 57.978516 40.439453 57.978516C40.571453 57.978516 40.699922 57.926031 40.794922 57.832031L57.832031 40.794922C57.933031 40.693922 57.986516 40.553156 57.978516 40.410156C57.970516 40.267156 57.901062 40.134875 57.789062 40.046875C55.536062 38.279875 52.843953 37.347656 50.001953 37.347656 z M 50 38.345703C52.428 38.345703 54.73975 39.087141 56.71875 40.494141L40.494141 56.716797C39.087141 54.737797 38.347656 52.426047 38.347656 49.998047C38.347656 43.572047 43.575 38.345703 50 38.345703 z M 77.113281 40.960938C76.837281 40.960938 76.613281 41.184938 76.613281 41.460938L76.613281 45.460938C76.613281 45.736938 76.837281 45.960937 77.113281 45.960938C77.389281 45.960938 77.613281 45.736938 77.613281 45.460938L77.613281 41.460938C77.613281 41.183937 77.390281 40.960938 77.113281 40.960938 z M 59.591797 42.021484C59.445797 42.014484 59.308031 42.066969 59.207031 42.167969L42.167969 59.205078C42.066969 59.306078 42.012484 59.446844 42.021484 59.589844C42.029484 59.732844 42.100891 59.865125 42.212891 59.953125C44.464891 61.720125 47.157 62.652344 50 62.652344C56.978 62.652344 62.654297 56.976047 62.654297 49.998047C62.654297 47.157047 61.719125 44.464937 59.953125 42.210938C59.865125 42.098937 59.733797 42.029484 59.591797 42.021484 z M 59.505859 43.28125C60.912859 45.26025 61.652344 47.571047 61.652344 49.998047C61.652344 56.424047 56.424047 61.652344 49.998047 61.652344C47.570047 61.652344 45.25925 60.912859 43.28125 59.505859L59.505859 43.28125 z" fill="#FFFFFF" />
</svg>