<svg xmlns="http://www.w3.org/2000/svg" viewBox="0 0 50 50">
  <path d="M7 2C4.199219 2 2 4.199219 2 7L2 34C2 36.800781 4.199219 39 7 39L34 39C36.800781 39 39 36.800781 39 34L39 9.8125L37 12L37 34C37 35.699219 35.699219 37 34 37L7 37C5.300781 37 4 35.699219 4 34L4 7C4 5.300781 5.300781 4 7 4L33.40625 4L35.09375 2.09375C34.695313 2.09375 34.398438 2 34 2 Z M 36.25 5.34375L18.9375 24.59375L10.65625 17.25L9.34375 18.75L18.34375 26.75L19.09375 27.40625L19.75 26.65625L37.75 6.65625 Z M 41 11L41 13L43 13C44.699219 13 46 14.300781 46 16L46 43C46 44.699219 44.699219 46 43 46L16 46C14.300781 46 13 44.699219 13 43L13 41L11 41L11 43C11 45.800781 13.199219 48 16 48L43 48C45.800781 48 48 45.800781 48 43L48 16C48 13.199219 45.800781 11 43 11Z" fill="#FFFFFF" />
</svg>