<svg xmlns="http://www.w3.org/2000/svg" viewBox="0 0 64 64">
  <path d="M12 4C9.792969 4 8 5.792969 8 8L8 56C8 58.207031 9.792969 60 12 60L47 60C48.652344 60 50 58.652344 50 57L50 53.816406C51.160156 53.402344 52 52.300781 52 51L52 44.617188L54.894531 43.171875C55.574219 42.832031 56 42.144531 56 41.382813L56 12C56 10.898438 55.101563 10 54 10L52 10L52 7C52 5.347656 50.652344 4 49 4 Z M 12 6L49 6C49.550781 6 50 6.449219 50 7L50 51C50 51.550781 49.550781 52 49 52L20 52L20 17C20 16.449219 19.554688 16 19 16C18.445313 16 18 16.449219 18 17L18 52L12 52C11.382813 52 10.660156 52.222656 10 52.632813L10 8C10 6.898438 10.898438 6 12 6 Z M 13 8C12.445313 8 12 8.449219 12 9C12 9.550781 12.445313 10 13 10L15 10C15.554688 10 16 9.550781 16 9C16 8.449219 15.554688 8 15 8 Z M 19 8C18.445313 8 18 8.449219 18 9L18 13C18 13.550781 18.445313 14 19 14C19.554688 14 20 13.550781 20 13L20 9C20 8.449219 19.554688 8 19 8 Z M 52 12L54 12L54 21.382813L52 22.382813 Z M 13 13C12.445313 13 12 13.449219 12 14C12 14.550781 12.445313 15 13 15L15 15C15.554688 15 16 14.550781 16 14C16 13.449219 15.554688 13 15 13 Z M 13 18C12.445313 18 12 18.449219 12 19C12 19.550781 12.445313 20 13 20L15 20C15.554688 20 16 19.550781 16 19C16 18.449219 15.554688 18 15 18 Z M 35 18C32.242188 18 30 20.242188 30 23L30 25C30 25.960938 30.285156 26.851563 30.761719 27.613281C28.128906 28.632813 26.050781 30.851563 25.296875 33.695313C25.15625 34.230469 25.476563 34.777344 26.011719 34.917969C26.542969 35.058594 27.089844 34.738281 27.234375 34.203125C27.898438 31.691406 29.898438 29.820313 32.347656 29.222656C33.117188 29.707031 34.023438 30 35 30C35.976563 30 36.882813 29.707031 37.652344 29.21875C40.101563 29.820313 42.105469 31.691406 42.769531 34.207031C42.886719 34.65625 43.292969 34.953125 43.734375 34.953125C43.820313 34.953125 43.90625 34.941406 43.988281 34.917969C44.523438 34.777344 44.84375 34.230469 44.703125 33.695313C43.949219 30.847656 41.875 28.632813 39.242188 27.613281C39.714844 26.851563 40 25.960938 40 25L40 23C40 20.242188 37.757813 18 35 18 Z M 35 19.832031C36.722656 19.832031 38.125 21.234375 38.125 22.957031L38.125 25.042969C38.125 26.765625 36.722656 28.167969 35 28.167969C33.277344 28.167969 31.875 26.765625 31.875 25.042969L31.875 22.957031C31.875 21.234375 33.277344 19.832031 35 19.832031 Z M 13 23C12.445313 23 12 23.449219 12 24C12 24.550781 12.445313 25 13 25L15 25C15.554688 25 16 24.550781 16 24C16 23.449219 15.554688 23 15 23 Z M 54 23.617188L54 31.382813L52 32.382813L52 24.617188 Z M 13 28C12.445313 28 12 28.449219 12 29C12 29.550781 12.445313 30 13 30L15 30C15.554688 30 16 29.550781 16 29C16 28.449219 15.554688 28 15 28 Z M 13 33C12.445313 33 12 33.449219 12 34C12 34.550781 12.445313 35 13 35L15 35C15.554688 35 16 34.550781 16 34C16 33.449219 15.554688 33 15 33 Z M 54 33.617188L54 41.382813L52 42.382813L52 34.617188 Z M 13 38C12.445313 38 12 38.449219 12 39C12 39.550781 12.445313 40 13 40L15 40C15.554688 40 16 39.550781 16 39C16 38.449219 15.554688 38 15 38 Z M 31 38C30.445313 38 30 38.449219 30 39C30 39.550781 30.445313 40 31 40L39 40C39.554688 40 40 39.550781 40 39C40 38.449219 39.554688 38 39 38 Z M 29 42C28.445313 42 28 42.449219 28 43C28 43.550781 28.445313 44 29 44L33 44C33.554688 44 34 43.550781 34 43C34 42.449219 33.554688 42 33 42 Z M 37 42C36.445313 42 36 42.449219 36 43C36 43.550781 36.445313 44 37 44L41 44C41.554688 44 42 43.550781 42 43C42 42.449219 41.554688 42 41 42 Z M 13 43C12.445313 43 12 43.449219 12 44C12 44.550781 12.445313 45 13 45L15 45C15.554688 45 16 44.550781 16 44C16 43.449219 15.554688 43 15 43 Z M 13 48C12.445313 48 12 48.449219 12 49C12 49.550781 12.445313 50 13 50L15 50C15.554688 50 16 49.550781 16 49C16 48.449219 15.554688 48 15 48 Z M 12 54L48 54L48 57C48 57.550781 47.550781 58 47 58L12 58C10.898438 58 10 57.101563 10 56C10 54.753906 11.390625 54 12 54Z" fill="#FFFFFF" />
</svg>