<?xml version="1.0" standalone="no"?>
<!DOCTYPE svg PUBLIC "-//W3C//DTD SVG 20010904//EN"
 "http://www.w3.org/TR/2001/REC-SVG-20010904/DTD/svg10.dtd">
<svg version="1.0" xmlns="http://www.w3.org/2000/svg"
 width="33px" height="33px" viewBox="0 0 225.000000 225.000000"
 preserveAspectRatio="xMidYMid meet">

<g transform="translate(0.000000,200.000000) scale(0.100000,-0.100000)"
fill="#000000" stroke="none">
<path d="M639 1648 c-79 -41 -158 -89 -178 -109 -39 -38 -247 -432 -237 -448
7 -11 231 -151 242 -151 5 0 27 26 49 56 l40 56 5 -383 5 -384 435 0 435 0 5
384 5 383 40 -56 c22 -30 44 -56 49 -56 11 0 235 140 242 151 10 16 -198 410
-237 448 -20 21 -96 67 -180 109 l-144 73 -217 -1 -217 0 -142 -72z m551 22
c0 -23 -64 -79 -107 -94 -59 -20 -107 -20 -166 0 -43 15 -107 71 -107 94 0 6
75 10 190 10 115 0 190 -4 190 -10z m-378 -40 c41 -59 97 -85 188 -85 103 0
157 29 206 111 9 16 15 17 38 6 26 -11 26 -13 11 -41 -18 -35 -18 -41 -5 -41
5 0 16 13 25 30 l15 30 88 -47 c139 -74 143 -78 228 -240 43 -81 78 -155 78
-165 1 -11 -32 -38 -93 -76 l-95 -60 -34 45 c-18 24 -39 42 -45 40 -9 -3 -13
-103 -15 -370 l-2 -367 -30 0 c-17 0 -30 -4 -30 -10 0 -5 14 -10 30 -10 27 0
30 -3 30 -30 l0 -30 -400 0 -400 0 0 30 0 30 280 0 c180 0 280 4 280 10 0 6
-100 10 -280 10 l-280 0 -2 367 c-2 267 -6 367 -15 370 -6 2 -26 -16 -45 -40
l-34 -45 -94 60 c-61 38 -95 66 -94 77 0 9 35 83 78 164 85 162 89 166 228
240 l88 47 14 -28 c23 -43 86 -99 141 -124 66 -30 199 -32 260 -4 28 13 35 20
23 23 -9 2 -26 -1 -38 -7 -38 -20 -142 -24 -201 -6 -61 17 -139 78 -164 127
-14 25 -13 29 3 38 27 16 35 13 64 -29z m-399 -544 c42 -27 77 -51 77 -55 0
-5 -8 -15 -18 -24 -17 -16 -24 -13 -108 39 -49 31 -90 57 -92 59 -1 1 3 14 9
29 11 24 14 25 33 13 12 -7 56 -35 99 -61z m1315 19 c-2 -1 -43 -28 -91 -60
-85 -54 -90 -56 -108 -39 -10 9 -19 20 -19 25 0 4 44 34 97 68 l98 60 13 -25
c8 -14 12 -27 10 -29z" fill="#626262"/>
<path d="M1185 1539 c-12 -19 5 -23 22 -6 16 16 16 17 1 17 -9 0 -20 -5 -23
-11z" fill="#626262"/>
<path d="M1240 390 c0 -5 14 -10 30 -10 17 0 30 5 30 10 0 6 -13 10 -30 10
-16 0 -30 -4 -30 -10z" fill="#626262"/>
</g>
</svg>
