<?xml version="1.0" standalone="no"?>
<!DOCTYPE svg PUBLIC "-//W3C//DTD SVG 20010904//EN"
 "http://www.w3.org/TR/2001/REC-SVG-20010904/DTD/svg10.dtd">
<svg version="1.0" xmlns="http://www.w3.org/2000/svg"
 width="21px" height="21px" viewBox="0 0 218.000000 231.000000"
 preserveAspectRatio="xMidYMid meet">

<g transform="translate(0.000000,231.000000) scale(0.100000,-0.100000)"
fill="#000000" stroke="none">
<path d="M95 2296 c-16 -7 -41 -26 -55 -41 l-25 -27 -3 -983 -2 -983 27 -32
c51 -61 40 -60 638 -60 l546 0 -7 23 c-4 12 -12 38 -19 57 l-12 35 -524 5
-524 5 0 945 0 945 820 0 820 0 3 -572 2 -573 60 0 60 0 -2 589 c-3 578 -3
590 -24 618 -11 15 -36 36 -55 45 -32 17 -93 18 -864 18 -669 -1 -836 -3 -860
-14z" fill="#626262"/>
<path d="M440 1780 c-11 -11 -20 -29 -20 -40 0 -11 9 -29 20 -40 19 -19 33
-20 518 -20 471 0 500 1 515 18 24 26 21 68 -5 86 -20 14 -85 16 -515 16 -480
0 -494 -1 -513 -20z" fill="#626262"/>
<path d="M440 1280 c-24 -24 -25 -48 -4 -78 l15 -22 503 0 c475 0 504 1 519
18 23 25 21 58 -3 82 -19 19 -33 20 -515 20 -482 0 -496 -1 -515 -20z" fill="#626262"/>
<path d="M1130 905 c-25 -30 -5 -42 76 -47 62 -4 81 -9 94 -26 9 -11 45 -127
79 -258 67 -253 86 -308 119 -337 30 -27 122 -37 349 -37 170 0 204 2 217 16
19 19 20 26 4 42 -9 9 -80 12 -259 12 -271 0 -280 2 -295 63 l-6 27 275 0
c215 0 278 3 289 13 17 18 103 369 95 390 -6 15 -41 17 -391 17 l-385 0 -11
38 c-10 39 -37 70 -77 91 -33 17 -158 14 -173 -4z" fill="#626262"/>
<path d="M460 793 c-40 -14 -53 -69 -22 -96 16 -15 48 -17 243 -17 171 0 230
3 243 13 26 19 24 67 -4 89 -20 16 -44 18 -234 17 -116 0 -218 -3 -226 -6z"/>
<path d="M1525 135 c-52 -51 -11 -135 66 -135 32 0 69 44 69 83 0 70 -85 103
-135 52z" fill="#626262"/>
<path d="M1891 143 c-11 -10 -24 -32 -27 -50 -5 -27 -1 -37 24 -63 36 -35 69
-38 106 -9 33 26 37 88 6 119 -25 25 -80 26 -109 3z" fill="#626262"/>
</g>
</svg>
