<svg xmlns="http://www.w3.org/2000/svg" xmlns:xlink="http://www.w3.org/1999/xlink" viewBox="0 0 24 24" fill="#5B5B5B">
  <path d="M11 1C9.3550302 1 8 2.3550302 8 4L4 4C2.9069372 4 2 4.9069372 2 6L2 12L4 12C4.5650302 12 5 12.43497 5 13C5 13.56503 4.5650302 14 4 14L2 14L2 20C2 21.093063 2.9069372 22 4 22L10 22L10 20C10 19.43497 10.43497 19 11 19C11.56503 19 12 19.43497 12 20L12 22L18 22C19.093063 22 20 21.093063 20 20L20 16C21.64497 16 23 14.64497 23 13C23 11.35503 21.64497 10 20 10L20 6C20 4.9069372 19.093063 4 18 4L14 4C14 2.3550302 12.64497 1 11 1 z M 11 3C11.56503 3 12 3.4349698 12 4L12 6L18 6L18 12L20 12C20.56503 12 21 12.43497 21 13C21 13.56503 20.56503 14 20 14L18 14L18 20L14 20C14 18.35503 12.64497 17 11 17C9.3550302 17 8 18.35503 8 20L4 20L4 16C5.6449698 16 7 14.64497 7 13C7 11.35503 5.6449698 10 4 10L4 6L10 6L10 4C10 3.4349698 10.43497 3 11 3 z" fill="#5B5B5B" />
</svg>