<?xml version="1.0" standalone="no"?>
<!DOCTYPE svg PUBLIC "-//W3C//DTD SVG 20010904//EN"
 "http://www.w3.org/TR/2001/REC-SVG-20010904/DTD/svg10.dtd">
<svg version="1.0" xmlns="http://www.w3.org/2000/svg"
 width="25px" height="25px" viewBox="0 0 225.000000 225.000000"
 preserveAspectRatio="xMidYMid meet">

<g transform="translate(0.000000,225.000000) scale(0.100000,-0.100000)"
fill="#000000" stroke="none">
<path d="M290 1485 l0 -355 60 0 60 0 0 -130 0 -130 45 0 45 0 0 130 0 130 74
0 74 0 4 59 c5 68 31 114 86 152 32 21 48 24 155 27 93 3 129 0 162 -13 52
-19 107 -71 138 -128 21 -40 22 -55 25 -289 l3 -248 -543 0 c-497 0 -546 -2
-578 -18 -70 -35 -96 -137 -51 -201 46 -65 -19 -61 1078 -61 972 0 999 1 1030
20 44 27 66 64 66 113 0 105 -61 146 -215 147 l-98 0 0 300 0 300 60 0 60 0 0
-55 0 -55 45 0 45 0 0 295 0 295 -45 0 -45 0 0 -50 0 -50 -60 0 -60 0 0 85 0
85 -202 0 -203 0 -70 -34 c-101 -49 -182 -67 -330 -73 -159 -6 -285 16 -399
71 l-74 36 -171 0 -171 0 0 -355z m409 230 c110 -43 191 -62 311 -71 157 -11
337 21 464 82 46 22 62 24 198 24 l148 0 2 -530 3 -530 -257 0 -256 0 -4 253
c-5 277 -9 298 -69 382 -36 50 -113 106 -174 127 -25 8 -86 13 -160 13 -111 0
-124 -2 -177 -28 -78 -39 -133 -106 -162 -199 -5 -16 -19 -18 -101 -18 l-95 0
0 265 0 265 121 0 c115 0 126 -2 208 -35z m1331 -235 l0 -100 -60 0 -60 0 0
100 0 100 60 0 60 0 0 -100z m90 -900 c11 -11 20 -27 20 -35 0 -8 -9 -24 -20
-35 -20 -20 -33 -20 -995 -20 -962 0 -975 0 -995 20 -11 11 -20 27 -20 35 0 8
9 24 20 35 20 20 33 20 995 20 962 0 975 0 995 -20z" fill="#626262"/>
<path d="M1467 1307 c-104 -63 -122 -199 -38 -287 56 -59 134 -74 206 -41 107
48 144 175 79 273 -49 76 -168 103 -247 55z m167 -98 c24 -27 27 -38 23 -73
-10 -73 -78 -107 -146 -71 -71 36 -59 148 19 178 30 12 75 -3 104 -34z" fill="#626262"/>
</g>
</svg>
