<?xml version="1.0" standalone="no"?>
<!DOCTYPE svg PUBLIC "-//W3C//DTD SVG 20010904//EN"
 "http://www.w3.org/TR/2001/REC-SVG-20010904/DTD/svg10.dtd">
<svg version="1.0" xmlns="http://www.w3.org/2000/svg"
 width="20px" height="20px" viewBox="0 0 216.000000 233.000000"
 preserveAspectRatio="xMidYMid meet">

<g transform="translate(0.000000,233.000000) scale(0.100000,-0.100000)"
fill="#000000" stroke="none">
<path d="M1043 1905 c-12 -8 -28 -36 -37 -63 -17 -51 -36 -164 -30 -171 3 -3
21 5 42 17 31 17 38 28 46 66 4 25 12 46 16 46 4 0 11 -20 14 -45 6 -40 12
-48 48 -66 22 -11 42 -19 44 -16 9 8 -26 157 -45 195 -27 54 -58 65 -98 37z"/>
<path d="M697 1702 c-33 -37 -22 -68 52 -141 37 -38 78 -74 90 -80 20 -11 21
-10 21 37 0 45 -3 51 -41 81 -22 18 -39 35 -36 37 2 2 24 -3 50 -12 45 -15 48
-15 87 7 22 13 37 26 33 30 -5 4 -43 19 -85 33 -92 31 -148 33 -171 8z"/>
<path d="M1285 1693 c-38 -14 -73 -28 -78 -32 -4 -4 11 -17 33 -30 39 -22 42
-22 87 -7 26 9 48 14 50 12 3 -2 -14 -19 -36 -37 -38 -30 -41 -36 -41 -81 0
-59 4 -58 102 32 50 46 69 70 74 96 14 77 -60 95 -191 47z"/>
<path d="M1005 1663 c-33 -20 -76 -46 -96 -59 l-37 -23 3 -101 c1 -55 5 -103
8 -106 3 -3 46 18 96 47 l91 53 0 113 c0 62 -1 113 -2 112 -2 0 -30 -17 -63
-36z"/>
<path d="M1090 1582 l0 -108 63 -36 c34 -19 78 -45 98 -57 l35 -21 -1 113 0
112 -90 52 c-50 29 -93 53 -97 53 -5 0 -8 -49 -8 -108z"/>
<path d="M452 1638 c-9 -9 -12 -113 -12 -408 l0 -396 -55 -74 c-60 -81 -66
-106 -32 -138 42 -40 93 -43 757 -40 586 3 638 4 667 21 18 9 40 28 49 42 15
24 14 27 -45 108 l-61 84 0 394 c0 294 -3 398 -12 407 -7 7 -44 12 -94 12
l-83 0 4 -27 c2 -16 4 -31 4 -35 1 -5 26 -8 56 -8 l55 0 0 -325 0 -325 -570 0
-570 0 0 325 0 325 60 0 c52 0 60 2 60 19 0 46 -8 51 -89 51 -47 0 -82 -5 -89
-12z m1248 -857 c22 -33 40 -62 40 -65 0 -4 -110 -6 -244 -6 -208 0 -245 -2
-250 -15 -4 -12 -32 -15 -166 -15 -134 0 -162 3 -166 15 -5 13 -42 15 -250 15
-134 0 -244 3 -244 6 0 3 19 32 41 65 l42 59 578 0 578 0 41 -59z"/>
<path d="M825 1439 c-124 -93 -171 -173 -125 -211 32 -26 82 -22 180 12 46 16
86 28 87 26 2 -2 8 -32 14 -67 13 -87 26 -124 56 -159 63 -75 116 -6 148 193
7 44 -1 43 110 3 84 -31 145 -34 168 -8 36 39 14 86 -80 171 -37 34 -71 61
-75 61 -5 0 -8 -21 -8 -47 0 -42 4 -49 40 -81 23 -19 39 -36 37 -39 -3 -2 -27
5 -55 15 l-50 19 -85 -48 -84 -49 -7 -50 c-4 -28 -11 -50 -15 -50 -5 0 -12 22
-16 50 l-7 49 -84 50 -85 49 -51 -20 c-28 -10 -52 -17 -55 -15 -2 3 15 20 37
40 39 33 41 38 38 82 l-3 47 -30 -23z"/>
<path d="M988 1407 c-48 -29 -90 -55 -93 -58 -7 -7 168 -109 187 -109 10 0
171 91 186 105 2 1 -14 13 -35 25 -58 35 -155 90 -156 89 -1 0 -41 -24 -89
-52z"/>
<path d="M0 85 l0 -85 1080 0 1080 0 0 85 0 85 -1080 0 -1080 0 0 -85z m140 9
c0 -2 -9 -4 -20 -4 -11 0 -20 4 -20 9 0 5 9 7 20 4 11 -3 20 -7 20 -9z m85 3
c14 2 15 1 5 -4 -8 -3 -18 -11 -22 -17 -5 -7 -8 -6 -8 4 0 13 -1 13 -10 0 -8
-12 -10 -10 -10 8 0 16 4 21 13 15 6 -4 21 -7 32 -6z m70 3 c-17 -7 -17 -9 -2
-9 19 -1 23 -26 6 -37 -6 -3 -16 -1 -22 6 -9 10 -9 11 0 6 6 -3 14 -2 17 3 3
5 -1 11 -9 15 -23 8 -18 26 8 25 21 0 21 -1 2 -9z m32 -27 c-3 -10 -5 -4 -5
12 0 17 2 24 5 18 2 -7 2 -21 0 -30z m111 21 c4 2 8 -8 8 -22 1 -15 -1 -21 -3
-14 -3 6 -9 10 -14 6 -5 -3 -9 7 -8 23 0 15 3 22 6 15 2 -6 8 -10 11 -8z m-41
-7 c-9 -7 -9 -10 1 -14 23 -9 12 -18 -20 -17 -25 1 -34 6 -36 21 -3 18 2 21
32 20 24 -1 32 -4 23 -10z m1324 -11 c5 3 9 0 9 -6 0 -15 -23 -7 -26 8 -1 7 0
8 3 2 2 -5 9 -8 14 -4z m79 -7 c0 -5 -4 -9 -10 -9 -5 0 -10 7 -10 16 0 8 5 12
10 9 6 -3 10 -10 10 -16z m150 17 c0 -2 -7 -9 -15 -16 -13 -11 -14 -10 -9 4 5
14 24 23 24 12z m97 -18 c-3 -8 -6 -5 -6 6 -1 11 2 17 5 13 3 -3 4 -12 1 -19z
m47 7 c3 -9 0 -15 -9 -15 -9 0 -12 6 -9 15 4 8 7 15 9 15 2 0 5 -7 9 -15z
m-2001 -10 c-3 -9 -8 -14 -10 -11 -3 3 -2 9 2 15 9 16 15 13 8 -4z m31 -1 c3
-8 2 -12 -4 -9 -6 3 -10 10 -10 16 0 14 7 11 14 -7z m1466 6 c0 -5 -2 -10 -4
-10 -3 0 -8 5 -11 10 -3 6 -1 10 4 10 6 0 11 -4 11 -10z m40 6 c0 -2 -7 -6
-15 -10 -8 -3 -15 -1 -15 4 0 6 7 10 15 10 8 0 15 -2 15 -4z m60 -8 c0 -4 -7
-8 -15 -8 -8 0 -15 4 -15 8 0 5 7 9 15 9 8 0 15 -4 15 -9z m75 2 c3 -5 1 -10
-4 -10 -6 0 -11 5 -11 10 0 6 2 10 4 10 3 0 8 -4 11 -10z m99 -2 c-3 -4 -9 -8
-15 -8 -5 0 -9 4 -9 8 0 5 7 9 15 9 8 0 12 -4 9 -9z m36 2 c0 -5 -4 -10 -10
-10 -5 0 -10 5 -10 10 0 6 5 10 10 10 6 0 10 -4 10 -10z"/>
<path d="M350 74 c0 -8 5 -12 10 -9 6 3 10 10 10 16 0 5 -4 9 -10 9 -5 0 -10
-7 -10 -16z"/>
</g>
</svg>
