<?xml version="1.0" standalone="no" ?>
<!DOCTYPE svg PUBLIC "-//W3C//DTD SVG 20010904//EN"
  "http://www.w3.org/TR/2001/REC-SVG-20010904/DTD/svg10.dtd">
<svg
  version="1.0"
  xmlns="http://www.w3.org/2000/svg"
  width="20px"
  height="20px"
  viewBox="0 0 225.000000 225.000000"
  preserveAspectRatio="xMidYMid meet"
>

<g
    transform="translate(0.000000,225.000000) scale(0.100000,-0.100000)"
    fill="#626262"
    stroke="none"
  >
<path
      d="M995 1863 c-63 -14 -158 -50 -213 -80 -79 -43 -189 -146 -243 -226
-39 -59 -43 -62 -99 -74 -150 -30 -311 -155 -378 -293 -153 -312 3 -681 331
-785 l78 -25 694 0 c651 0 697 1 754 19 84 26 137 60 199 125 99 104 147 255
124 391 -31 188 -173 339 -357 380 l-72 16 -17 62 c-31 111 -83 194 -181 292
-74 75 -105 98 -175 132 -115 56 -193 73 -321 72 -57 -1 -113 -3 -124 -6z
m243 -188 c97 -23 179 -70 252 -144 90 -91 129 -179 166 -377 3 -19 13 -22 93
-28 103 -8 140 -18 197 -57 79 -54 119 -143 112 -248 -8 -103 -58 -180 -152
-229 l-51 -27 -690 0 -690 0 -67 32 c-81 38 -146 102 -185 181 -25 51 -28 67
-28 162 0 100 1 108 34 168 64 118 167 186 312 205 l79 10 42 76 c121 220 349
329 576 276z"
      fill="#626262"
    />
<path
      d="M941 1220 c-99 -100 -181 -183 -181 -185 0 -3 52 -5 115 -5 l115 0 0
-140 0 -140 135 0 135 0 0 140 0 140 115 0 c63 0 115 2 115 4 0 5 -329 336
-351 354 -15 11 -40 -11 -198 -168z"
      fill="#626262"
    />
</g>
</svg>
